<svg xmlns="http://www.w3.org/2000/svg" width="574" height="574" fill="none" viewBox="0 0 574 574">
  <path fill="#DEE9FF" d="M173.34 151.466s61.549 46.707 155.119-40.627c83.099-77.559 150.952 44.812 151.425 103.415.616 75.911-83.098 136.651-42.471 186.511 40.624 49.86-80.569 132.196-145.887 60.94-81.253-88.64-103.265-16.619-149.579-16.619-33.24 0-101.485-82.595-55.4-144.041 38.78-51.706 17.63-68.866 7.388-86.791-14.774-25.855 20.312-96.027 79.405-62.788Z"/>
  <path fill="#BDD6F9" d="M420.439 254.682c3.308 1.23 6.922 1.312 10.362.52 14.412-3.306 63.967-12.066 55.357 26.335-1.876 7.618-30.898 50.286 10.432 65.86a28.494 28.494 0 0 0 9.473 1.866c12.726.262 37.944-2.743 48.497-13.485 12.751-12.979-1.179-6.825-1.179-6.825s-48.47 21.152-65.592-1.289c-1.904-2.497-3.118-6.124-3.464-9.246-.603-5.412 1.8-12.564 4.957-18.792 4.274-8.428 24.788-46.338-19.754-57.382-10.26-2.443-25.164-4.637-44.378 3.453-11.21 4.719-8.727 7.492-4.711 8.985Z"/>
  <path fill="#0E84E5" d="m430.356 240.529-12.9 4.829a8.61 8.61 0 0 0-5.045 11.081l.639 1.709a8.61 8.61 0 0 0 11.081 5.045l12.902-4.827a8.61 8.61 0 0 0 5.045-11.083l-.639-1.707a8.61 8.61 0 0 0-11.083-5.047Z"/>
  <path fill="#fff" d="m351.165 254.501-42.546 15.925a4.3 4.3 0 0 0-2.523 5.539l.168.449a4.305 4.305 0 0 0 5.541 2.523l42.546-15.924a4.303 4.303 0 0 0 2.523-5.541l-.168-.449a4.304 4.304 0 0 0-5.541-2.522Zm11.876 31.728-42.548 15.923a4.305 4.305 0 0 0-2.522 5.541l.166.449a4.306 4.306 0 0 0 5.542 2.521l42.547-15.922a4.308 4.308 0 0 0 2.524-5.541l-.168-.449a4.304 4.304 0 0 0-5.541-2.522Z"/>
  <path fill="#5895F9" d="m402.323 232.849-34.483 12.905a8.61 8.61 0 0 0-5.047 11.082l11.775 31.458a8.61 8.61 0 0 0 11.08 5.045l34.485-12.905a8.61 8.61 0 0 0 5.045-11.082l-11.773-31.458a8.612 8.612 0 0 0-11.082-5.045Z"/>
  <path fill="#699CFF" d="m371.403 241.1-34.486 12.907a8.612 8.612 0 0 0-5.045 11.083l14.047 37.529a8.609 8.609 0 0 0 11.08 5.045l34.485-12.905a8.61 8.61 0 0 0 5.045-11.082l-14.046-37.529a8.61 8.61 0 0 0-11.08-5.048Z"/>
  <path fill="#208AF2" d="m376.8 233.485-.27.1a5.74 5.74 0 0 0-3.364 7.388l19.678 52.577a5.739 5.739 0 0 0 7.386 3.364l.27-.103a5.737 5.737 0 0 0 3.364-7.386l-19.676-52.576a5.74 5.74 0 0 0-7.388-3.364Z"/>
  <path fill="#BDD6F9" d="M25.177 267.099s69.256-19.463 59.201 25.379c-1.746 7.095-26.881 43.626 3.058 61.165 6.43 3.766 13.848 5.435 21.298 5.396 13.358-.07 34.535-2.64 44.048-12.323 12.749-12.978-1.179-6.824-1.179-6.824s-39.775 16.361-60.237 3.319c-6.987-4.453-10.154-13.075-8.257-21.142a48.474 48.474 0 0 1 4.395-11.504c4.45-8.336 24.788-46.338-19.754-57.382-10.26-2.443-25.164-4.637-44.38 3.452-19.216 8.092 1.807 10.464 1.807 10.464Z"/>
  <path fill="#0E84E5" d="m162.094 329.857-12.901 4.83a8.611 8.611 0 0 0-5.046 11.082l.64 1.708a8.607 8.607 0 0 0 11.082 5.045l12.901-4.828a8.61 8.61 0 0 0 5.046-11.082l-.64-1.708a8.611 8.611 0 0 0-11.082-5.047Z"/>
  <path fill="#5895F9" d="m183.891 308.632-19.12 7.156a8.61 8.61 0 0 0-5.046 11.082l9.22 24.633a8.61 8.61 0 0 0 11.082 5.047l19.12-7.156a8.611 8.611 0 0 0 5.046-11.082l-9.22-24.633a8.61 8.61 0 0 0-11.082-5.047Z"/>
  <path fill="#699CFF" d="m215.722 289.665-28.514 10.672a8.61 8.61 0 0 0-5.045 11.083l14.046 37.529a8.609 8.609 0 0 0 11.081 5.047l28.513-10.672a8.61 8.61 0 0 0 5.047-11.083l-14.046-37.529a8.61 8.61 0 0 0-11.082-5.047Z"/>
  <path fill="#208AF2" d="m221.763 281.893-.271.101a5.74 5.74 0 0 0-3.364 7.388l19.676 52.576a5.741 5.741 0 0 0 7.388 3.365l.271-.103a5.74 5.74 0 0 0 3.364-7.388l-19.678-52.575a5.74 5.74 0 0 0-7.386-3.364Z"/>
  <path fill="#418DF9" d="M294.573 248.398a3.99 3.99 0 0 1-3.539-4.261l2.128-38.86c.127-2.321 2.087-4.085 4.311-3.88l3.1.287c2.224.205 3.817 2.296 3.506 4.601l-5.228 38.573a4.016 4.016 0 0 1-4.278 3.54Zm-18.37 3.35c-.32.094-.654.125-.986.09a2.55 2.55 0 0 1-2.161-1.806l-7.597-24.173a2.726 2.726 0 0 1 1.756-3.428l1.966-.594a2.55 2.55 0 0 1 2.79.973c.203.287.345.613.415.958l5.631 24.768a2.72 2.72 0 0 1-1.814 3.212Zm-10.252 13.94c-1.362 1.687-4.1 1.667-6.208-.045l-37.414-30.399c-2.237-1.817-2.895-4.822-1.452-6.61l2.013-2.492c1.446-1.79 4.41-1.642 6.526.321l35.403 32.895c1.995 1.851 2.493 4.645 1.132 6.33Zm17.295 78.519a3.991 3.991 0 0 1 2.333 5.025l-11.982 37.027c-.715 2.212-3.061 3.415-5.16 2.649l-2.925-1.068c-2.097-.767-3.104-3.196-2.214-5.343l14.905-35.959a4.022 4.022 0 0 1 5.043-2.331Zm18.616 1.454a2.521 2.521 0 0 1 1.813.693 2.517 2.517 0 0 1 .791 1.771l1.173 25.311a2.73 2.73 0 0 1-2.573 2.866l-2.054.072a2.559 2.559 0 0 1-1.892-.773 2.54 2.54 0 0 1-.714-1.913l.882-25.383a2.73 2.73 0 0 1 .77-1.826 2.726 2.726 0 0 1 1.804-.818Zm13.473-10.861c1.747-1.283 4.389-.564 5.988 1.63l28.413 38.945c1.696 2.327 1.566 5.4-.287 6.761l-2.583 1.897c-1.853 1.361-4.684.461-6.228-1.979l-25.83-40.844c-1.451-2.298-1.219-5.127.527-6.41Z"/>
</svg>
