<svg xmlns="http://www.w3.org/2000/svg" width="22" height="22" fill="none" viewBox="0 0 22 22">
  <g clip-path="url(#a)">
    <path fill="#167EE6" d="M21.17 9.087h-8.974a.717.717 0 0 0-.717.717v2.867c0 .396.32.718.717.718h5.053a6.746 6.746 0 0 1-2.904 3.402l2.155 3.73c3.457-1.999 5.5-5.506 5.5-9.433a7.3 7.3 0 0 0-.123-1.408.72.72 0 0 0-.707-.593Z"/>
    <path fill="#12B347" d="M11 17.696a6.694 6.694 0 0 1-5.791-3.351l-3.73 2.15A10.985 10.985 0 0 0 11 22c1.995 0 3.878-.537 5.5-1.474v-.005l-2.155-3.73a6.646 6.646 0 0 1-3.345.905Z"/>
    <path fill="#0F993E" d="M16.5 20.526v-.005l-2.155-3.73a6.646 6.646 0 0 1-3.345.905V22a10.98 10.98 0 0 0 5.5-1.474Z"/>
    <path fill="#FFD500" d="M4.304 11c0-1.219.333-2.36.905-3.345l-3.73-2.15A10.886 10.886 0 0 0 0 11c0 2 .537 3.878 1.479 5.495l3.73-2.15A6.646 6.646 0 0 1 4.304 11Z"/>
    <path fill="#FF4B26" d="M11 4.304a6.66 6.66 0 0 1 4.251 1.527c.286.235.7.218.962-.044l2.031-2.03a.723.723 0 0 0-.041-1.058A10.967 10.967 0 0 0 11 0a10.985 10.985 0 0 0-9.52 5.505l3.73 2.15c1.16-2 3.318-3.35 5.791-3.35Z"/>
    <path fill="#D93F21" d="M15.251 5.83c.285.236.7.219.962-.043l2.03-2.03a.723.723 0 0 0-.04-1.058A10.967 10.967 0 0 0 11 0v4.304a6.66 6.66 0 0 1 4.251 1.527Z"/>
  </g>
  <defs>
    <clipPath id="a">
      <path fill="#fff" d="M0 0h22v22H0z"/>
    </clipPath>
  </defs>
</svg>
