<svg xmlns="http://www.w3.org/2000/svg" width="26" height="27" fill="none" viewBox="0 0 26 27">
  <path fill="#fff" d="M16.564 12.896c-.3 0-.599-.15-.774-.413l-3.992-5.971a.944.944 0 0 1 .262-1.3L19.122.478c.55-.375 1.21-.5 1.86-.375.648.125 1.21.5 1.584 1.05l2.27 3.385a2.483 2.483 0 0 1-.685 3.448L17.1 12.72a.888.888 0 0 1-.537.175Zm-2.683-6.647 2.945 4.41 6.276-4.21a.597.597 0 0 0 .163-.85l-2.271-3.385a.607.607 0 0 0-.387-.262.602.602 0 0 0-.462.087l-6.264 4.21Z"/>
  <path fill="#fff" d="M10.213 16.294c-.3 0-.599-.15-.773-.412l-3.195-4.773a.933.933 0 0 1 .262-1.3l5.965-3.997a.931.931 0 0 1 .698-.137c.25.05.462.187.6.4l3.194 4.772a.933.933 0 0 1-.262 1.3l-5.965 3.997c-.162.1-.35.15-.524.15Zm-1.896-5.447 2.146 3.21 4.404-2.948-2.146-3.223-4.404 2.96Z"/>
  <path fill="#fff" d="M4.398 19.517a2.187 2.187 0 0 1-1.822-.974l-1.41-2.1a2.167 2.167 0 0 1-.324-1.636 2.14 2.14 0 0 1 .923-1.386l4.93-3.299a.93.93 0 0 1 1.297.263l2.795 4.172a.933.933 0 0 1-.262 1.3l-4.929 3.298a2.205 2.205 0 0 1-1.198.362Zm2.558-7.333-4.142 2.773a.319.319 0 0 0-.088.438l1.41 2.098c.1.138.287.188.437.088l4.142-2.774-1.759-2.623Zm.288 14.742a.87.87 0 0 1-.387-.088.932.932 0 0 1-.462-1.237l5.603-12.243a.932.932 0 1 1 1.697.775L8.091 26.376c-.162.35-.5.55-.848.55Z"/>
  <path fill="#fff" d="M18.324 26.925a.91.91 0 0 1-.849-.55l-5.54-12.242a.94.94 0 0 1 .462-1.237.941.941 0 0 1 1.235.462l5.54 12.243a.94.94 0 0 1-.461 1.237.836.836 0 0 1-.387.087Z"/>
</svg>
